<?xml version="1.0" standalone="no"?>
<!DOCTYPE svg PUBLIC "-//W3C//DTD SVG 20010904//EN"
 "http://www.w3.org/TR/2001/REC-SVG-20010904/DTD/svg10.dtd">
<svg version="1.0" xmlns="http://www.w3.org/2000/svg"
 width="404.000000pt" height="404.000000pt" viewBox="0 0 404.000000 404.000000"
 preserveAspectRatio="xMidYMid meet">
<metadata>
Created by potrace 1.14, written by Peter Selinger 2001-2017
</metadata>
<g transform="translate(0.000000,404.000000) scale(0.100000,-0.100000)"
fill="#000000" stroke="none">
<path d="M2240 3618 c-142 -16 -261 -76 -367 -184 -40 -42 -83 -97 -98 -129
-15 -30 -32 -55 -39 -56 -6 0 -43 -2 -83 -4 -171 -9 -356 -111 -456 -251 -101
-143 -136 -284 -114 -468 1 -10 -5 -20 -13 -21 -8 -1 -37 -5 -65 -9 -92 -11
-173 -44 -266 -107 -59 -40 -141 -124 -164 -170 -10 -19 -25 -29 -52 -33 -186
-34 -361 -164 -446 -333 -65 -127 -84 -299 -50 -432 54 -205 209 -369 419
-441 32 -11 67 -20 78 -20 31 0 46 -13 52 -46 28 -166 169 -351 324 -427 105
-51 179 -68 285 -67 160 1 309 58 420 161 30 28 30 28 75 12 91 -32 156 -42
245 -39 183 6 334 75 458 211 l49 53 41 -45 c197 -214 540 -258 792 -101 159
99 285 296 294 458 1 9 18 22 39 29 210 73 360 234 416 447 15 58 16 226 2
287 -22 92 -87 213 -152 283 -46 48 -125 107 -182 133 -29 14 -52 28 -52 33 0
5 9 30 21 55 11 25 22 55 25 67 2 11 7 35 10 51 13 55 11 169 -4 240 -70 346
-413 556 -766 469 -18 -4 -27 7 -59 69 -84 165 -271 301 -443 322 -88 11 -108
11 -174 3z"/>
</g>
</svg>
